<mxfile host="app.diagrams.net" agent="Mozilla/5.0 (Windows NT 10.0; Win64; x64) AppleWebKit/537.36 (KHTML, like Gecko) Chrome/131.0.0.0 Safari/537.36 Edg/131.0.0.0" version="25.0.1">
  <diagram name="第 1 页" id="WKyUUM9IlrwOw7Ze_oSJ">
    <mxGraphModel dx="2436" dy="1648" grid="0" gridSize="10" guides="1" tooltips="1" connect="1" arrows="1" fold="1" page="0" pageScale="1" pageWidth="827" pageHeight="1169" math="0" shadow="0">
      <root>
        <mxCell id="0" />
        <mxCell id="1" parent="0" />
        <mxCell id="UIU1XOzS9_jlmgWmp-Uu-1" value="&lt;p style=&quot;margin:0px;margin-top:4px;text-align:center;&quot;&gt;&lt;i&gt;&amp;lt;&amp;lt;Boundary&amp;gt;&amp;gt;&lt;/i&gt;&lt;br&gt;&lt;b&gt;TutorialSearchPage&lt;/b&gt;&lt;/p&gt;&lt;hr size=&quot;1&quot; style=&quot;border-style:solid;&quot;&gt;&lt;p style=&quot;margin:0px;margin-left:4px;&quot;&gt;+ tutorialList: List&amp;lt;Tutorial&amp;gt;&lt;/p&gt;&lt;p style=&quot;margin:0px;margin-left:4px;&quot;&gt;+ searchQuery: string&lt;/p&gt;&lt;p style=&quot;margin:0px;margin-left:4px;&quot;&gt;+ searchButton: Button&lt;/p&gt;&lt;p style=&quot;margin:0px;margin-left:4px;&quot;&gt;+&amp;nbsp;viewDetailButton: Button&lt;/p&gt;&lt;p style=&quot;margin:0px;margin-left:4px;&quot;&gt;+&amp;nbsp;buyButton: Button&lt;/p&gt;&lt;hr size=&quot;1&quot; style=&quot;border-style:solid;&quot;&gt;&lt;p style=&quot;margin:0px;margin-left:4px;&quot;&gt;+ searchTutorial()&lt;br&gt;+ viewTutorialInfo()&lt;/p&gt;&lt;p style=&quot;margin:0px;margin-left:4px;&quot;&gt;+&amp;nbsp;purchaseTutorial()&lt;/p&gt;" style="verticalAlign=top;align=left;overflow=fill;html=1;whiteSpace=wrap;" vertex="1" parent="1">
          <mxGeometry x="1189" y="305" width="150" height="180" as="geometry" />
        </mxCell>
        <mxCell id="UIU1XOzS9_jlmgWmp-Uu-2" value="&lt;p style=&quot;margin:0px;margin-top:4px;text-align:center;&quot;&gt;&lt;i&gt;&amp;lt;&amp;lt;Boundary&amp;gt;&amp;gt;&lt;/i&gt;&lt;br&gt;&lt;b&gt;TutorialContentPage&lt;/b&gt;&lt;/p&gt;&lt;hr size=&quot;1&quot; style=&quot;border-style:solid;&quot;&gt;&lt;p style=&quot;margin:0px;margin-left:4px;&quot;&gt;+ currentTutorial: Tutorial&lt;/p&gt;&lt;p style=&quot;margin:0px;margin-left:4px;&quot;&gt;+ progressTracker: ProgressTracker&lt;/p&gt;&lt;p style=&quot;margin:0px;margin-left:4px;&quot;&gt;+&amp;nbsp;AIPlan: string&lt;/p&gt;&lt;p style=&quot;margin:0px;margin-left:4px;&quot;&gt;+&amp;nbsp;tutorialID: string&lt;/p&gt;&lt;p style=&quot;margin:0px;margin-left:4px;&quot;&gt;+&amp;nbsp;editPlanButton: Button&lt;/p&gt;&lt;p style=&quot;margin:0px;margin-left:4px;&quot;&gt;+&amp;nbsp;progressTrackButton: Button&lt;/p&gt;&lt;p style=&quot;margin:0px;margin-left:4px;&quot;&gt;+&amp;nbsp;dataAnalysisButton: Button&lt;/p&gt;&lt;hr size=&quot;1&quot; style=&quot;border-style:solid;&quot;&gt;&lt;p style=&quot;margin:0px;margin-left:4px;&quot;&gt;+ playTutorial()&lt;br&gt;+ editPlan(userID: int)&lt;/p&gt;&lt;p style=&quot;margin:0px;margin-left:4px;&quot;&gt;+&amp;nbsp;generateAIAssistPlan(userID: int)&lt;/p&gt;&lt;p style=&quot;margin:0px;margin-left:4px;&quot;&gt;+&amp;nbsp;trackProgress()&lt;/p&gt;&lt;p style=&quot;margin:0px;margin-left:4px;&quot;&gt;+&amp;nbsp;&lt;span style=&quot;background-color: initial;&quot;&gt;analyzeData()&lt;/span&gt;&lt;/p&gt;" style="verticalAlign=top;align=left;overflow=fill;html=1;whiteSpace=wrap;" vertex="1" parent="1">
          <mxGeometry x="866" y="358" width="200" height="240" as="geometry" />
        </mxCell>
        <mxCell id="UIU1XOzS9_jlmgWmp-Uu-5" value="&lt;p style=&quot;margin:0px;margin-top:4px;text-align:center;&quot;&gt;&lt;i&gt;&amp;lt;&amp;lt;Control&amp;gt;&amp;gt;&lt;/i&gt;&lt;br&gt;&lt;b&gt;TutorialController&lt;/b&gt;&lt;/p&gt;&lt;hr size=&quot;1&quot; style=&quot;border-style:solid;&quot;&gt;&lt;p style=&quot;margin:0px;margin-left:4px;&quot;&gt;&lt;br&gt;&lt;/p&gt;&lt;hr size=&quot;1&quot; style=&quot;border-style:solid;&quot;&gt;&lt;p style=&quot;margin:0px;margin-left:4px;&quot;&gt;+ handleSearch()&lt;br&gt;+ handlePurchase()&lt;/p&gt;&lt;p style=&quot;margin:0px;margin-left:4px;&quot;&gt;+&amp;nbsp;handlePlanEdit()&lt;/p&gt;&lt;p style=&quot;margin:0px;margin-left:4px;&quot;&gt;+&amp;nbsp;handleAnalysis()&lt;/p&gt;&lt;p style=&quot;margin:0px;margin-left:4px;&quot;&gt;+&amp;nbsp;&lt;span style=&quot;background-color: initial;&quot;&gt;generateAIAssistPlan()&lt;/span&gt;&lt;/p&gt;&lt;p style=&quot;margin:0px;margin-left:4px;&quot;&gt;&lt;span style=&quot;background-color: initial;&quot;&gt;+&amp;nbsp;&lt;/span&gt;&lt;span style=&quot;background-color: initial;&quot;&gt;getTutorials(query: str)&lt;/span&gt;&lt;/p&gt;&lt;p style=&quot;margin:0px;margin-left:4px;&quot;&gt;&lt;span style=&quot;background-color: initial;&quot;&gt;+&amp;nbsp;&lt;/span&gt;&lt;span style=&quot;background-color: initial;&quot;&gt;getTutorialDetails(tutorialID: int)&lt;/span&gt;&lt;/p&gt;&lt;p style=&quot;margin:0px;margin-left:4px;&quot;&gt;&lt;span style=&quot;background-color: initial;&quot;&gt;+&amp;nbsp;&lt;/span&gt;&lt;span style=&quot;background-color: initial;&quot;&gt;processPurchase(userID: int, tutorialID: int)&lt;/span&gt;&lt;/p&gt;" style="verticalAlign=top;align=left;overflow=fill;html=1;whiteSpace=wrap;" vertex="1" parent="1">
          <mxGeometry x="979" y="62" width="250" height="190" as="geometry" />
        </mxCell>
        <mxCell id="UIU1XOzS9_jlmgWmp-Uu-11" value="&lt;p style=&quot;margin:0px;margin-top:4px;text-align:center;&quot;&gt;&lt;i&gt;&amp;lt;&amp;lt;Entity&amp;gt;&amp;gt;&lt;/i&gt;&lt;br&gt;&lt;b&gt;Tutorial&lt;/b&gt;&lt;/p&gt;&lt;hr size=&quot;1&quot; style=&quot;border-style:solid;&quot;&gt;&lt;p style=&quot;margin:0px;margin-left:4px;&quot;&gt;+ tutorialID:&amp;nbsp;&lt;span style=&quot;background-color: initial;&quot;&gt;string&lt;/span&gt;&lt;/p&gt;&lt;p style=&quot;margin:0px;margin-left:4px;&quot;&gt;+ title: string&lt;/p&gt;&lt;p style=&quot;margin:0px;margin-left:4px;&quot;&gt;+ content: string&lt;/p&gt;&lt;p style=&quot;margin:0px;margin-left:4px;&quot;&gt;+ price: float&lt;/p&gt;&lt;p style=&quot;margin:0px;margin-left:4px;&quot;&gt;+&amp;nbsp;status: string&lt;/p&gt;&lt;hr size=&quot;1&quot; style=&quot;border-style:solid;&quot;&gt;&lt;p style=&quot;margin:0px;margin-left:4px;&quot;&gt;+&amp;nbsp;updateStatus(status: string)&lt;/p&gt;" style="verticalAlign=top;align=left;overflow=fill;html=1;whiteSpace=wrap;" vertex="1" parent="1">
          <mxGeometry x="780" y="94" width="169" height="150" as="geometry" />
        </mxCell>
        <mxCell id="UIU1XOzS9_jlmgWmp-Uu-15" value="&lt;p style=&quot;margin:0px;margin-top:4px;text-align:center;&quot;&gt;&lt;i&gt;&amp;lt;&amp;lt;Entity&amp;gt;&amp;gt;&lt;/i&gt;&lt;br&gt;&lt;b&gt;User&lt;/b&gt;&lt;/p&gt;&lt;hr size=&quot;1&quot; style=&quot;border-style:solid;&quot;&gt;&lt;p style=&quot;margin:0px;margin-left:4px;&quot;&gt;+&amp;nbsp;&lt;span style=&quot;background-color: initial;&quot;&gt;userID:&amp;nbsp;&lt;/span&gt;&lt;span style=&quot;background-color: initial;&quot;&gt;string&lt;/span&gt;&lt;/p&gt;&lt;p style=&quot;margin:0px;margin-left:4px;&quot;&gt;+&amp;nbsp;username: string&lt;/p&gt;&lt;p style=&quot;margin:0px;margin-left:4px;&quot;&gt;- password: string&lt;/p&gt;&lt;p style=&quot;margin:0px;margin-left:4px;&quot;&gt;- accountBalance: double&lt;/p&gt;&lt;p style=&quot;margin:0px;margin-left:4px;&quot;&gt;+&amp;nbsp;gender: string&lt;/p&gt;&lt;p style=&quot;margin:0px;margin-left:4px;&quot;&gt;+ UserType: string&lt;/p&gt;&lt;p style=&quot;margin:0px;margin-left:4px;&quot;&gt;+&amp;nbsp;purchasedTutorials:&amp;nbsp;List&amp;lt;Tutorial&amp;gt;&lt;/p&gt;&lt;p style=&quot;margin:0px;margin-left:4px;&quot;&gt;+&amp;nbsp;progressData:&amp;nbsp;Map&amp;lt;Tutorial, Progress&amp;gt;&lt;/p&gt;&lt;hr size=&quot;1&quot; style=&quot;border-style:solid;&quot;&gt;&lt;p style=&quot;margin:0px;margin-left:4px;&quot;&gt;+&amp;nbsp;register()&lt;/p&gt;&lt;p style=&quot;margin:0px;margin-left:4px;&quot;&gt;+&amp;nbsp;login(password: String)&lt;/p&gt;&lt;p style=&quot;margin:0px;margin-left:4px;&quot;&gt;-&amp;nbsp;getUserInfo()&lt;/p&gt;&lt;p style=&quot;margin:0px;margin-left:4px;&quot;&gt;+ logout()&lt;/p&gt;&lt;p style=&quot;margin:0px;margin-left:4px;&quot;&gt;+ UserTutorialPartFunction()&lt;/p&gt;" style="verticalAlign=top;align=left;overflow=fill;html=1;whiteSpace=wrap;" vertex="1" parent="1">
          <mxGeometry x="501" y="195" width="250" height="250" as="geometry" />
        </mxCell>
        <mxCell id="UIU1XOzS9_jlmgWmp-Uu-17" value="" style="endArrow=open;html=1;rounded=0;entryX=0.5;entryY=1;entryDx=0;entryDy=0;exitX=0.5;exitY=0;exitDx=0;exitDy=0;edgeStyle=orthogonalEdgeStyle;endFill=0;strokeWidth=1;endSize=12;" edge="1" parent="1" source="UIU1XOzS9_jlmgWmp-Uu-2" target="UIU1XOzS9_jlmgWmp-Uu-5">
          <mxGeometry width="50" height="50" relative="1" as="geometry">
            <mxPoint x="940" y="540" as="sourcePoint" />
            <mxPoint x="990" y="490" as="targetPoint" />
          </mxGeometry>
        </mxCell>
        <mxCell id="UIU1XOzS9_jlmgWmp-Uu-18" value="" style="endArrow=open;html=1;rounded=0;entryX=1;entryY=0.5;entryDx=0;entryDy=0;exitX=0.5;exitY=0;exitDx=0;exitDy=0;edgeStyle=orthogonalEdgeStyle;endFill=0;strokeWidth=1;endSize=12;" edge="1" parent="1" source="UIU1XOzS9_jlmgWmp-Uu-1" target="UIU1XOzS9_jlmgWmp-Uu-5">
          <mxGeometry width="50" height="50" relative="1" as="geometry">
            <mxPoint x="1270" y="640" as="sourcePoint" />
            <mxPoint x="1310" y="570" as="targetPoint" />
          </mxGeometry>
        </mxCell>
        <mxCell id="UIU1XOzS9_jlmgWmp-Uu-24" value="" style="endArrow=open;endSize=12;dashed=1;html=1;rounded=0;strokeColor=default;align=center;verticalAlign=middle;fontFamily=Helvetica;fontSize=11;fontColor=default;labelBackgroundColor=default;exitX=0.25;exitY=0;exitDx=0;exitDy=0;" edge="1" parent="1" source="UIU1XOzS9_jlmgWmp-Uu-2">
          <mxGeometry x="0.0041" width="160" relative="1" as="geometry">
            <mxPoint x="1090" y="580" as="sourcePoint" />
            <mxPoint x="916" y="245" as="targetPoint" />
            <mxPoint as="offset" />
          </mxGeometry>
        </mxCell>
        <mxCell id="UIU1XOzS9_jlmgWmp-Uu-31" value="" style="endArrow=open;endSize=12;dashed=1;html=1;rounded=0;strokeColor=default;align=center;verticalAlign=middle;fontFamily=Helvetica;fontSize=11;fontColor=default;labelBackgroundColor=default;exitX=-0.003;exitY=0.61;exitDx=0;exitDy=0;entryX=0.75;entryY=1;entryDx=0;entryDy=0;exitPerimeter=0;edgeStyle=orthogonalEdgeStyle;" edge="1" parent="1" source="UIU1XOzS9_jlmgWmp-Uu-2" target="UIU1XOzS9_jlmgWmp-Uu-15">
          <mxGeometry x="0.0041" width="160" relative="1" as="geometry">
            <mxPoint x="830" y="370" as="sourcePoint" />
            <mxPoint x="829" y="253" as="targetPoint" />
            <mxPoint as="offset" />
            <Array as="points">
              <mxPoint x="688" y="508" />
            </Array>
          </mxGeometry>
        </mxCell>
        <mxCell id="UIU1XOzS9_jlmgWmp-Uu-32" value="" style="endArrow=open;endSize=12;dashed=1;html=1;rounded=0;strokeColor=default;align=center;verticalAlign=middle;fontFamily=Helvetica;fontSize=11;fontColor=default;labelBackgroundColor=default;exitX=0.521;exitY=0.002;exitDx=0;exitDy=0;entryX=0.5;entryY=0;entryDx=0;entryDy=0;exitPerimeter=0;" edge="1" parent="1" source="UIU1XOzS9_jlmgWmp-Uu-15" target="UIU1XOzS9_jlmgWmp-Uu-11">
          <mxGeometry x="0.0041" width="160" relative="1" as="geometry">
            <mxPoint x="830" y="370" as="sourcePoint" />
            <mxPoint x="829" y="239" as="targetPoint" />
            <mxPoint as="offset" />
            <Array as="points">
              <mxPoint x="630" y="50" />
              <mxPoint x="865" y="50" />
            </Array>
          </mxGeometry>
        </mxCell>
      </root>
    </mxGraphModel>
  </diagram>
</mxfile>
